<?xml version="1.0" encoding="UTF-8" standalone="no"?>
<!-- Created with Inkscape (http://www.inkscape.org/) -->

<svg
   xmlns:dc="http://purl.org/dc/elements/1.1/"
   xmlns:cc="http://creativecommons.org/ns#"
   xmlns:rdf="http://www.w3.org/1999/02/22-rdf-syntax-ns#"
   xmlns:svg="http://www.w3.org/2000/svg"
   xmlns="http://www.w3.org/2000/svg"
   xmlns:sodipodi="http://sodipodi.sourceforge.net/DTD/sodipodi-0.dtd"
   xmlns:inkscape="http://www.inkscape.org/namespaces/inkscape"
   id="svg4626"
   version="1.1"
   inkscape:version="0.91 r13725"
   xml:space="preserve"
   width="4127.3213"
   height="367.63751"
   viewBox="0 0 4127.3213 367.63751"
   sodipodi:docname="regularities_string_problem.svg"><metadata
     id="metadata4632"><rdf:RDF><cc:Work
         rdf:about=""><dc:format>image/svg+xml</dc:format><dc:type
           rdf:resource="http://purl.org/dc/dcmitype/StillImage" /><dc:title></dc:title></cc:Work></rdf:RDF></metadata><defs
     id="defs4630" /><sodipodi:namedview
     pagecolor="#ffffff"
     bordercolor="#666666"
     borderopacity="1"
     objecttolerance="10"
     gridtolerance="10"
     guidetolerance="10"
     inkscape:pageopacity="0"
     inkscape:pageshadow="2"
     inkscape:window-width="1366"
     inkscape:window-height="721"
     id="namedview4628"
     showgrid="false"
     fit-margin-top="0"
     fit-margin-left="0"
     fit-margin-right="0"
     fit-margin-bottom="0"
     inkscape:zoom="0.18713911"
     inkscape:cx="1988.9918"
     inkscape:cy="-219.62616"
     inkscape:window-x="0"
     inkscape:window-y="0"
     inkscape:window-maximized="1"
     inkscape:current-layer="g4634" /><g
     id="g4634"
     inkscape:groupmode="layer"
     inkscape:label="regularities_string_problem"
     transform="matrix(1.25,0,0,-1.25,-427.94375,600.59277)"><g
       id="g5174"><g
         id="g5160"><g
           transform="matrix(1,0,0,-1,0,503.04022)"
           id="g4638"><path
             inkscape:connector-curvature="0"
             id="path4640"
             style="fill:none;stroke:#000000;stroke-width:2.20740294;stroke-linecap:butt;stroke-linejoin:miter;stroke-miterlimit:4;stroke-dasharray:none;stroke-opacity:1"
             d="m 342.355,76.066 459.563,0" /></g><g
           transform="matrix(-1,0,0,1,0,503.04022)"
           id="g4642"><path
             inkscape:connector-curvature="0"
             id="path4644"
             style="fill:#000000;fill-opacity:1;fill-rule:evenodd;stroke:#000000;stroke-width:2.20740294;stroke-linecap:butt;stroke-linejoin:miter;stroke-miterlimit:4;stroke-dasharray:none;stroke-opacity:1"
             d="m -779.844,-76.066 8.828,-8.829 -30.902,8.829 30.902,8.828 -8.828,-8.828 z" /></g><g
           transform="matrix(1,0,0,-1,0,503.04022)"
           id="g4646"><path
             inkscape:connector-curvature="0"
             id="path4648"
             style="fill:#ffffff;fill-opacity:1;fill-rule:evenodd;stroke:#000000;stroke-width:1;stroke-linecap:square;stroke-linejoin:bevel;stroke-miterlimit:4;stroke-dasharray:none;stroke-opacity:1"
             d="m 403.031,23.066 0,106 106,0 50,-53 -50,-53 -106,0" /></g><g
           transform="matrix(1,0,0,-1,0,503.04022)"
           id="g4650"><path
             inkscape:connector-curvature="0"
             id="path4652"
             style="fill:#ffffff;fill-opacity:1;fill-rule:evenodd;stroke:#000000;stroke-width:1;stroke-linecap:square;stroke-linejoin:bevel;stroke-miterlimit:4;stroke-dasharray:none;stroke-opacity:1"
             d="m 589.398,23.066 0,106 106,0 50,-53 -50,-53 -106,0" /></g><g
           transform="matrix(1,0,0,-1,0,503.04022)"
           id="g4654"><path
             inkscape:connector-curvature="0"
             id="path4656"
             style="fill:#ffffff;fill-opacity:1;fill-rule:evenodd;stroke:#000000;stroke-width:6.00000286;stroke-linecap:square;stroke-linejoin:bevel;stroke-miterlimit:4;stroke-dasharray:none;stroke-opacity:1"
             d="m 408.031,30.566 90,0 0,90 -90,0 0,-90 z" /></g><g
           transform="matrix(1,0,0,-1,0,503.04022)"
           id="g4658"><path
             inkscape:connector-curvature="0"
             id="path4660"
             style="fill:#ffffff;fill-opacity:1;fill-rule:evenodd;stroke:#000000;stroke-width:6.00000286;stroke-linecap:square;stroke-linejoin:bevel;stroke-miterlimit:4;stroke-dasharray:none;stroke-opacity:1"
             d="m 594.398,30.566 90,0 0,90 -90,0 0,-90 z" /></g></g><g
         transform="translate(0,20.391)"
         id="g5132"><g
           transform="matrix(1,0,0,-1,0,503.04022)"
           id="g4662"><path
             inkscape:connector-curvature="0"
             id="path4664"
             style="fill:none;stroke:#000000;stroke-width:2.20740294;stroke-linecap:butt;stroke-linejoin:miter;stroke-miterlimit:4;stroke-dasharray:none;stroke-opacity:1"
             d="m 910.012,96.457 459.562,0" /></g><g
           transform="matrix(-1,0,0,1,0,503.04022)"
           id="g4666"><path
             inkscape:connector-curvature="0"
             id="path4668"
             style="fill:#000000;fill-opacity:1;fill-rule:evenodd;stroke:#000000;stroke-width:2.20740294;stroke-linecap:butt;stroke-linejoin:miter;stroke-miterlimit:4;stroke-dasharray:none;stroke-opacity:1"
             d="m -1347.5,-96.457 8.828,-8.832 -30.902,8.832 30.902,8.828 -8.828,-8.828 z" /></g><g
           transform="matrix(1,0,0,-1,0,503.04022)"
           id="g4670"><path
             inkscape:connector-curvature="0"
             id="path4672"
             style="fill:#ffffff;fill-opacity:1;fill-rule:evenodd;stroke:#000000;stroke-width:1;stroke-linecap:square;stroke-linejoin:bevel;stroke-miterlimit:4;stroke-dasharray:none;stroke-opacity:1"
             d="m 970.188,43.457 0,106 106,0 50,-53 -50,-53 -106,0" /></g><g
           transform="matrix(1,0,0,-1,0,503.04022)"
           id="g4674"><path
             inkscape:connector-curvature="0"
             id="path4676"
             style="fill:#ffffff;fill-opacity:1;fill-rule:evenodd;stroke:#000000;stroke-width:1;stroke-linecap:square;stroke-linejoin:bevel;stroke-miterlimit:4;stroke-dasharray:none;stroke-opacity:1"
             d="m 1156.551,43.457 0,105 107,0 50,-53 -50,-52 -107,0" /></g><g
           transform="matrix(1,0,0,-1,0,503.04022)"
           id="g4678"><path
             inkscape:connector-curvature="0"
             id="path4680"
             style="fill:#ffffff;fill-opacity:1;fill-rule:evenodd;stroke:#000000;stroke-width:6.00000286;stroke-linecap:square;stroke-linejoin:bevel;stroke-miterlimit:4;stroke-dasharray:none;stroke-opacity:1"
             d="m 975.188,50.957 90,0 0,90 -90,0 0,-90 z" /></g><g
           transform="matrix(1,0,0,-1,0,503.04022)"
           id="g4682"><path
             inkscape:connector-curvature="0"
             id="path4684"
             style="fill:#ffffff;fill-opacity:1;fill-rule:evenodd;stroke:#000000;stroke-width:6.00000286;stroke-linecap:square;stroke-linejoin:bevel;stroke-miterlimit:4;stroke-dasharray:none;stroke-opacity:1"
             d="m 1161.551,50.957 0,90 90,-45 -90,-45" /></g></g><g
         transform="translate(0,5.098)"
         id="g5104"><g
           transform="matrix(1,0,0,-1,0,503.04022)"
           id="g4686"><path
             inkscape:connector-curvature="0"
             id="path4688"
             style="fill:none;stroke:#000000;stroke-width:2.20740294;stroke-linecap:butt;stroke-linejoin:miter;stroke-miterlimit:4;stroke-dasharray:none;stroke-opacity:1"
             d="m 1477.668,81.164 459.562,0" /></g><g
           transform="matrix(-1,0,0,1,0,503.04022)"
           id="g4690"><path
             inkscape:connector-curvature="0"
             id="path4692"
             style="fill:#000000;fill-opacity:1;fill-rule:evenodd;stroke:#000000;stroke-width:2.20740294;stroke-linecap:butt;stroke-linejoin:miter;stroke-miterlimit:4;stroke-dasharray:none;stroke-opacity:1"
             d="m -1915.156,-81.164 8.828,-8.828 -30.902,8.828 30.902,8.828 -8.828,-8.828 z" /></g><g
           transform="matrix(1,0,0,-1,0,503.04022)"
           id="g4694"><path
             inkscape:connector-curvature="0"
             id="path4696"
             style="fill:#ffffff;fill-opacity:1;fill-rule:evenodd;stroke:#000000;stroke-width:1;stroke-linecap:square;stroke-linejoin:bevel;stroke-miterlimit:4;stroke-dasharray:none;stroke-opacity:1"
             d="m 1538.34,28.164 0,106 106,0 50,-53 -50,-53 -106,0" /></g><g
           transform="matrix(1,0,0,-1,0,503.04022)"
           id="g4698"><path
             inkscape:connector-curvature="0"
             id="path4700"
             style="fill:#ffffff;fill-opacity:1;fill-rule:evenodd;stroke:#000000;stroke-width:1;stroke-linecap:square;stroke-linejoin:bevel;stroke-miterlimit:4;stroke-dasharray:none;stroke-opacity:1"
             d="m 1724.711,28.164 0,106 106,0 50,-53 -50,-53 -106,0" /></g><g
           transform="matrix(1,0,0,-1,0,503.04022)"
           id="g4702"><path
             inkscape:connector-curvature="0"
             id="path4704"
             style="fill:#ffffff;fill-opacity:1;fill-rule:evenodd;stroke:#000000;stroke-width:6.00000286;stroke-linecap:square;stroke-linejoin:bevel;stroke-miterlimit:4;stroke-dasharray:none;stroke-opacity:1"
             d="m 1633.34,80.664 c 0,24.852 -20.145,45 -45,45 -24.852,0 -45,-20.148 -45,-45 0,-24.851 20.148,-45 45,-45 24.855,0 45,20.149 45,45" /></g><g
           transform="matrix(1,0,0,-1,0,503.04022)"
           id="g4706"><path
             inkscape:connector-curvature="0"
             id="path4708"
             style="fill:#ffffff;fill-opacity:1;fill-rule:evenodd;stroke:#000000;stroke-width:6.00000286;stroke-linecap:square;stroke-linejoin:bevel;stroke-miterlimit:4;stroke-dasharray:none;stroke-opacity:1"
             d="m 1729.711,35.664 90,0 0,90 -90,0 0,-90 z" /></g></g><g
         transform="translate(0,5.098)"
         id="g5062"><g
           transform="matrix(1,0,0,-1,0,503.04022)"
           id="g4710"><path
             inkscape:connector-curvature="0"
             id="path4712"
             style="fill:none;stroke:#000000;stroke-width:2.20740294;stroke-linecap:butt;stroke-linejoin:miter;stroke-miterlimit:4;stroke-dasharray:none;stroke-opacity:1"
             d="m 2045.324,81.164 459.563,0" /></g><g
           transform="matrix(-1,0,0,1,0,503.04022)"
           id="g4714"><path
             inkscape:connector-curvature="0"
             id="path4716"
             style="fill:#000000;fill-opacity:1;fill-rule:evenodd;stroke:#000000;stroke-width:2.20740294;stroke-linecap:butt;stroke-linejoin:miter;stroke-miterlimit:4;stroke-dasharray:none;stroke-opacity:1"
             d="m -2482.812,-81.164 8.832,-8.828 -30.907,8.828 30.907,8.828 -8.832,-8.828 z" /></g><g
           transform="matrix(1,0,0,-1,0,503.04022)"
           id="g4718"><path
             inkscape:connector-curvature="0"
             id="path4720"
             style="fill:#ffffff;fill-opacity:1;fill-rule:evenodd;stroke:#000000;stroke-width:1;stroke-linecap:square;stroke-linejoin:bevel;stroke-miterlimit:4;stroke-dasharray:none;stroke-opacity:1"
             d="m 2105.5,28.164 0,106 106,0 50,-53 -50,-53 -106,0" /></g><g
           transform="matrix(1,0,0,-1,0,503.04022)"
           id="g4722"><path
             inkscape:connector-curvature="0"
             id="path4724"
             style="fill:#ffffff;fill-opacity:1;fill-rule:evenodd;stroke:#000000;stroke-width:1;stroke-linecap:square;stroke-linejoin:bevel;stroke-miterlimit:4;stroke-dasharray:none;stroke-opacity:1"
             d="m 2291.863,28.164 0,105 107,0 50,-53 -50,-52 -107,0" /></g><g
           transform="matrix(1,0,0,-1,0,503.04022)"
           id="g4726"><path
             inkscape:connector-curvature="0"
             id="path4728"
             style="fill:#ffffff;fill-opacity:1;fill-rule:evenodd;stroke:#000000;stroke-width:6.00000286;stroke-linecap:square;stroke-linejoin:bevel;stroke-miterlimit:4;stroke-dasharray:none;stroke-opacity:1"
             d="m 2200.5,80.664 c 0,24.852 -20.148,45 -45,45 -24.855,0 -45,-20.148 -45,-45 0,-24.851 20.145,-45 45,-45 24.852,0 45,20.149 45,45" /></g><g
           transform="matrix(1,0,0,-1,0,503.04022)"
           id="g4730"><path
             inkscape:connector-curvature="0"
             id="path4732"
             style="fill:#ffffff;fill-opacity:1;fill-rule:evenodd;stroke:#000000;stroke-width:6.00000286;stroke-linecap:square;stroke-linejoin:bevel;stroke-miterlimit:4;stroke-dasharray:none;stroke-opacity:1"
             d="m 2296.863,35.664 0,90 90,-45 -90,-45" /></g></g><g
         id="g5146"><g
           transform="matrix(1,0,0,-1,0,503.04022)"
           id="g4734"><path
             inkscape:connector-curvature="0"
             id="path4736"
             style="fill:none;stroke:#000000;stroke-width:2.20740294;stroke-linecap:butt;stroke-linejoin:miter;stroke-miterlimit:4;stroke-dasharray:none;stroke-opacity:1"
             d="m 342.355,263.176 459.563,0" /></g><g
           transform="matrix(-1,0,0,1,0,503.04022)"
           id="g4738"><path
             inkscape:connector-curvature="0"
             id="path4740"
             style="fill:#000000;fill-opacity:1;fill-rule:evenodd;stroke:#000000;stroke-width:2.20740294;stroke-linecap:butt;stroke-linejoin:miter;stroke-miterlimit:4;stroke-dasharray:none;stroke-opacity:1"
             d="m -779.844,-263.176 8.828,-8.828 -30.902,8.828 30.902,8.828 -8.828,-8.828 z" /></g><g
           transform="matrix(1,0,0,-1,0,503.04022)"
           id="g4742"><path
             inkscape:connector-curvature="0"
             id="path4744"
             style="fill:#ffffff;fill-opacity:1;fill-rule:evenodd;stroke:#000000;stroke-width:1;stroke-linecap:square;stroke-linejoin:bevel;stroke-miterlimit:4;stroke-dasharray:none;stroke-opacity:1"
             d="m 403.031,210.176 0,106 106,0 50,-53 -50,-53 -106,0" /></g><g
           transform="matrix(1,0,0,-1,0,503.04022)"
           id="g4746"><path
             inkscape:connector-curvature="0"
             id="path4748"
             style="fill:#ffffff;fill-opacity:1;fill-rule:evenodd;stroke:#000000;stroke-width:1;stroke-linecap:square;stroke-linejoin:bevel;stroke-miterlimit:4;stroke-dasharray:none;stroke-opacity:1"
             d="m 589.398,210.176 0,106 106,0 50,-53 -50,-53 -106,0" /></g><g
           transform="matrix(1,0,0,-1,0,503.04022)"
           id="g4750"><path
             inkscape:connector-curvature="0"
             id="path4752"
             style="fill:#0000ff;fill-opacity:1;fill-rule:evenodd;stroke:#000000;stroke-width:6.00000286;stroke-linecap:square;stroke-linejoin:bevel;stroke-miterlimit:4;stroke-dasharray:none;stroke-opacity:1"
             d="m 408.031,217.676 90,0 0,90 -90,0 0,-90 z" /></g><g
           transform="matrix(1,0,0,-1,0,503.04022)"
           id="g4754"><path
             inkscape:connector-curvature="0"
             id="path4756"
             style="fill:#0000ff;fill-opacity:1;fill-rule:evenodd;stroke:#000000;stroke-width:6.00000286;stroke-linecap:square;stroke-linejoin:bevel;stroke-miterlimit:4;stroke-dasharray:none;stroke-opacity:1"
             d="m 594.398,217.676 90,0 0,90 -90,0 0,-90 z" /></g></g><g
         id="g5118"><g
           transform="matrix(1,0,0,-1,0,503.04022)"
           id="g4758"><path
             inkscape:connector-curvature="0"
             id="path4760"
             style="fill:none;stroke:#000000;stroke-width:2.20740294;stroke-linecap:butt;stroke-linejoin:miter;stroke-miterlimit:4;stroke-dasharray:none;stroke-opacity:1"
             d="m 910.012,263.176 459.562,0" /></g><g
           transform="matrix(-1,0,0,1,0,503.04022)"
           id="g4762"><path
             inkscape:connector-curvature="0"
             id="path4764"
             style="fill:#000000;fill-opacity:1;fill-rule:evenodd;stroke:#000000;stroke-width:2.20740294;stroke-linecap:butt;stroke-linejoin:miter;stroke-miterlimit:4;stroke-dasharray:none;stroke-opacity:1"
             d="m -1347.5,-263.176 8.828,-8.828 -30.902,8.828 30.902,8.828 -8.828,-8.828 z" /></g><g
           transform="matrix(1,0,0,-1,0,503.04022)"
           id="g4766"><path
             inkscape:connector-curvature="0"
             id="path4768"
             style="fill:#ffffff;fill-opacity:1;fill-rule:evenodd;stroke:#000000;stroke-width:1;stroke-linecap:square;stroke-linejoin:bevel;stroke-miterlimit:4;stroke-dasharray:none;stroke-opacity:1"
             d="m 970.191,210.176 0,106 106,0 50,-53 -50,-53 -106,0" /></g><g
           transform="matrix(1,0,0,-1,0,503.04022)"
           id="g4770"><path
             inkscape:connector-curvature="0"
             id="path4772"
             style="fill:#ffffff;fill-opacity:1;fill-rule:evenodd;stroke:#000000;stroke-width:1;stroke-linecap:square;stroke-linejoin:bevel;stroke-miterlimit:4;stroke-dasharray:none;stroke-opacity:1"
             d="m 1156.551,210.176 0,105 107,0 50,-53 -50,-52 -107,0" /></g><g
           transform="matrix(1,0,0,-1,0,503.04022)"
           id="g4774"><path
             inkscape:connector-curvature="0"
             id="path4776"
             style="fill:#0000ff;fill-opacity:1;fill-rule:evenodd;stroke:#000000;stroke-width:6.00000286;stroke-linecap:square;stroke-linejoin:bevel;stroke-miterlimit:4;stroke-dasharray:none;stroke-opacity:1"
             d="m 975.191,217.676 90,0 0,90 -90,0 0,-90 z" /></g><g
           transform="matrix(1,0,0,-1,0,503.04022)"
           id="g4778"><path
             inkscape:connector-curvature="0"
             id="path4780"
             style="fill:#0000ff;fill-opacity:1;fill-rule:evenodd;stroke:#000000;stroke-width:6.00000286;stroke-linecap:square;stroke-linejoin:bevel;stroke-miterlimit:4;stroke-dasharray:none;stroke-opacity:1"
             d="m 1161.551,217.676 0,90 90,-45 -90,-45" /></g></g><g
         id="g5090"><g
           transform="matrix(1,0,0,-1,0,503.04022)"
           id="g4782"><path
             inkscape:connector-curvature="0"
             id="path4784"
             style="fill:none;stroke:#000000;stroke-width:2.20740294;stroke-linecap:butt;stroke-linejoin:miter;stroke-miterlimit:4;stroke-dasharray:none;stroke-opacity:1"
             d="m 1477.668,263.176 459.562,0" /></g><g
           transform="matrix(-1,0,0,1,0,503.04022)"
           id="g4786"><path
             inkscape:connector-curvature="0"
             id="path4788"
             style="fill:#000000;fill-opacity:1;fill-rule:evenodd;stroke:#000000;stroke-width:2.20740294;stroke-linecap:butt;stroke-linejoin:miter;stroke-miterlimit:4;stroke-dasharray:none;stroke-opacity:1"
             d="m -1915.156,-263.176 8.828,-8.828 -30.902,8.828 30.902,8.828 -8.828,-8.828 z" /></g><g
           transform="matrix(1,0,0,-1,0,503.04022)"
           id="g4790"><path
             inkscape:connector-curvature="0"
             id="path4792"
             style="fill:#ffffff;fill-opacity:1;fill-rule:evenodd;stroke:#000000;stroke-width:1;stroke-linecap:square;stroke-linejoin:bevel;stroke-miterlimit:4;stroke-dasharray:none;stroke-opacity:1"
             d="m 1538.344,210.176 0,106 106,0 50,-53 -50,-53 -106,0" /></g><g
           transform="matrix(1,0,0,-1,0,503.04022)"
           id="g4794"><path
             inkscape:connector-curvature="0"
             id="path4796"
             style="fill:#ffffff;fill-opacity:1;fill-rule:evenodd;stroke:#000000;stroke-width:1;stroke-linecap:square;stroke-linejoin:bevel;stroke-miterlimit:4;stroke-dasharray:none;stroke-opacity:1"
             d="m 1724.707,210.176 0,106 106,0 50,-53 -50,-53 -106,0" /></g><g
           transform="matrix(1,0,0,-1,0,503.04022)"
           id="g4798"><path
             inkscape:connector-curvature="0"
             id="path4800"
             style="fill:#0000ff;fill-opacity:1;fill-rule:evenodd;stroke:#000000;stroke-width:6.00000286;stroke-linecap:square;stroke-linejoin:bevel;stroke-miterlimit:4;stroke-dasharray:none;stroke-opacity:1"
             d="m 1543.344,217.676 90,0 0,90 -90,0 0,-90 z" /></g><g
           transform="matrix(1,0,0,-1,0,503.04022)"
           id="g4802"><path
             inkscape:connector-curvature="0"
             id="path4804"
             style="fill:#ffffff;fill-opacity:1;fill-rule:evenodd;stroke:#000000;stroke-width:6.00000286;stroke-linecap:square;stroke-linejoin:bevel;stroke-miterlimit:4;stroke-dasharray:none;stroke-opacity:1"
             d="m 1819.707,262.676 c 0,24.851 -20.148,45 -45,45 -24.852,0 -45,-20.149 -45,-45 0,-24.852 20.148,-45 45,-45 24.852,0 45,20.148 45,45" /></g></g><g
         id="g5076"><g
           transform="matrix(1,0,0,-1,0,503.04022)"
           id="g4806"><path
             inkscape:connector-curvature="0"
             id="path4808"
             style="fill:none;stroke:#000000;stroke-width:2.20740294;stroke-linecap:butt;stroke-linejoin:miter;stroke-miterlimit:4;stroke-dasharray:none;stroke-opacity:1"
             d="m 2045.324,263.176 459.563,0" /></g><g
           transform="matrix(-1,0,0,1,0,503.04022)"
           id="g4810"><path
             inkscape:connector-curvature="0"
             id="path4812"
             style="fill:#000000;fill-opacity:1;fill-rule:evenodd;stroke:#000000;stroke-width:2.20740294;stroke-linecap:butt;stroke-linejoin:miter;stroke-miterlimit:4;stroke-dasharray:none;stroke-opacity:1"
             d="m -2482.812,-263.176 8.832,-8.828 -30.907,8.828 30.907,8.828 -8.832,-8.828 z" /></g><g
           transform="matrix(1,0,0,-1,0,503.04022)"
           id="g4814"><path
             inkscape:connector-curvature="0"
             id="path4816"
             style="fill:#ffffff;fill-opacity:1;fill-rule:evenodd;stroke:#000000;stroke-width:1;stroke-linecap:square;stroke-linejoin:bevel;stroke-miterlimit:4;stroke-dasharray:none;stroke-opacity:1"
             d="m 2105.996,210.176 0,106 106,0 50,-53 -50,-53 -106,0" /></g><g
           transform="matrix(1,0,0,-1,0,503.04022)"
           id="g4818"><path
             inkscape:connector-curvature="0"
             id="path4820"
             style="fill:#ffffff;fill-opacity:1;fill-rule:evenodd;stroke:#000000;stroke-width:1;stroke-linecap:square;stroke-linejoin:bevel;stroke-miterlimit:4;stroke-dasharray:none;stroke-opacity:1"
             d="m 2292.367,210.176 0,106 106,0 50,-53 -50,-53 -106,0" /></g><g
           transform="matrix(1,0,0,-1,0,503.04022)"
           id="g4822"><path
             inkscape:connector-curvature="0"
             id="path4824"
             style="fill:#0000ff;fill-opacity:1;fill-rule:evenodd;stroke:#000000;stroke-width:6.00000286;stroke-linecap:square;stroke-linejoin:bevel;stroke-miterlimit:4;stroke-dasharray:none;stroke-opacity:1"
             d="m 2200.996,262.676 c 0,24.851 -20.148,45 -45,45 -24.851,0 -45,-20.149 -45,-45 0,-24.852 20.149,-45 45,-45 24.852,0 45,20.148 45,45" /></g><g
           transform="matrix(1,0,0,-1,0,503.04022)"
           id="g4826"><path
             inkscape:connector-curvature="0"
             id="path4828"
             style="fill:#0000ff;fill-opacity:1;fill-rule:evenodd;stroke:#000000;stroke-width:6.00000286;stroke-linecap:square;stroke-linejoin:bevel;stroke-miterlimit:4;stroke-dasharray:none;stroke-opacity:1"
             d="m 2297.367,217.676 90,0 0,90 -90,0 0,-90 z" /></g></g><g
         id="g5048"><g
           transform="matrix(1,0,0,-1,0,503.04022)"
           id="g4830"><path
             inkscape:connector-curvature="0"
             id="path4832"
             style="fill:none;stroke:#000000;stroke-width:2.20740294;stroke-linecap:butt;stroke-linejoin:miter;stroke-miterlimit:4;stroke-dasharray:none;stroke-opacity:1"
             d="m 2612.977,263.176 459.562,0" /></g><g
           transform="matrix(-1,0,0,1,0,503.04022)"
           id="g4834"><path
             inkscape:connector-curvature="0"
             id="path4836"
             style="fill:#000000;fill-opacity:1;fill-rule:evenodd;stroke:#000000;stroke-width:2.20740294;stroke-linecap:butt;stroke-linejoin:miter;stroke-miterlimit:4;stroke-dasharray:none;stroke-opacity:1"
             d="m -3050.465,-263.176 8.828,-8.828 -30.902,8.828 30.902,8.828 -8.828,-8.828 z" /></g><g
           transform="matrix(1,0,0,-1,0,503.04022)"
           id="g4838"><path
             inkscape:connector-curvature="0"
             id="path4840"
             style="fill:#ffffff;fill-opacity:1;fill-rule:evenodd;stroke:#000000;stroke-width:1;stroke-linecap:square;stroke-linejoin:bevel;stroke-miterlimit:4;stroke-dasharray:none;stroke-opacity:1"
             d="m 2673.152,210.176 0,106 106,0 50,-53 -50,-53 -106,0" /></g><g
           transform="matrix(1,0,0,-1,0,503.04022)"
           id="g4842"><path
             inkscape:connector-curvature="0"
             id="path4844"
             style="fill:#ffffff;fill-opacity:1;fill-rule:evenodd;stroke:#000000;stroke-width:1;stroke-linecap:square;stroke-linejoin:bevel;stroke-miterlimit:4;stroke-dasharray:none;stroke-opacity:1"
             d="m 2859.52,210.176 0,105 107,0 50,-53 -50,-52 -107,0" /></g><g
           transform="matrix(1,0,0,-1,0,503.04022)"
           id="g4846"><path
             inkscape:connector-curvature="0"
             id="path4848"
             style="fill:#0000ff;fill-opacity:1;fill-rule:evenodd;stroke:#000000;stroke-width:6.00000286;stroke-linecap:square;stroke-linejoin:bevel;stroke-miterlimit:4;stroke-dasharray:none;stroke-opacity:1"
             d="m 2768.152,262.676 c 0,24.851 -20.148,45 -45,45 -24.855,0 -45,-20.149 -45,-45 0,-24.852 20.145,-45 45,-45 24.852,0 45,20.148 45,45" /></g><g
           transform="matrix(1,0,0,-1,0,503.04022)"
           id="g4850"><path
             inkscape:connector-curvature="0"
             id="path4852"
             style="fill:#0000ff;fill-opacity:1;fill-rule:evenodd;stroke:#000000;stroke-width:6.00000286;stroke-linecap:square;stroke-linejoin:bevel;stroke-miterlimit:4;stroke-dasharray:none;stroke-opacity:1"
             d="m 2864.52,217.676 0,90 90,-45 -90,-45" /></g></g><g
         id="g5034"><g
           transform="matrix(1,0,0,-1,0,503.04022)"
           id="g4854"><path
             inkscape:connector-curvature="0"
             id="path4856"
             style="fill:none;stroke:#000000;stroke-width:2.20740294;stroke-linecap:butt;stroke-linejoin:miter;stroke-miterlimit:4;stroke-dasharray:none;stroke-opacity:1"
             d="m 3180.633,260.625 459.562,0" /></g><g
           transform="matrix(-1,0,0,1,0,503.04022)"
           id="g4858"><path
             inkscape:connector-curvature="0"
             id="path4860"
             style="fill:#000000;fill-opacity:1;fill-rule:evenodd;stroke:#000000;stroke-width:2.20740294;stroke-linecap:butt;stroke-linejoin:miter;stroke-miterlimit:4;stroke-dasharray:none;stroke-opacity:1"
             d="m -3618.121,-260.625 8.828,-8.832 -30.902,8.832 30.902,8.828 -8.828,-8.828 z" /></g><g
           transform="matrix(1,0,0,-1,0,503.04022)"
           id="g4862"><path
             inkscape:connector-curvature="0"
             id="path4864"
             style="fill:#ffffff;fill-opacity:1;fill-rule:evenodd;stroke:#000000;stroke-width:1;stroke-linecap:square;stroke-linejoin:bevel;stroke-miterlimit:4;stroke-dasharray:none;stroke-opacity:1"
             d="m 3241.305,207.625 0,106 106,0 50,-53 -50,-53 -106,0" /></g><g
           transform="matrix(1,0,0,-1,0,503.04022)"
           id="g4866"><path
             inkscape:connector-curvature="0"
             id="path4868"
             style="fill:#ffffff;fill-opacity:1;fill-rule:evenodd;stroke:#000000;stroke-width:1;stroke-linecap:square;stroke-linejoin:bevel;stroke-miterlimit:4;stroke-dasharray:none;stroke-opacity:1"
             d="m 3427.676,207.625 0,106 106,0 50,-53 -50,-53 -106,0" /></g><g
           transform="matrix(1,0,0,-1,0,503.04022)"
           id="g4870"><path
             inkscape:connector-curvature="0"
             id="path4872"
             style="fill:#0000ff;fill-opacity:1;fill-rule:evenodd;stroke:#000000;stroke-width:6.00000286;stroke-linecap:square;stroke-linejoin:bevel;stroke-miterlimit:4;stroke-dasharray:none;stroke-opacity:1"
             d="m 3336.305,260.125 c 0,24.855 -20.145,45 -45,45 -24.852,0 -45,-20.145 -45,-45 0,-24.852 20.148,-45 45,-45 24.855,0 45,20.148 45,45" /></g><g
           transform="matrix(1,0,0,-1,0,503.04022)"
           id="g4874"><path
             inkscape:connector-curvature="0"
             id="path4876"
             style="fill:#ffffff;fill-opacity:1;fill-rule:evenodd;stroke:#000000;stroke-width:6.00000286;stroke-linecap:square;stroke-linejoin:bevel;stroke-miterlimit:4;stroke-dasharray:none;stroke-opacity:1"
             d="m 3522.676,260.125 c 0,24.855 -20.149,45 -45,45 -24.852,0 -45,-20.145 -45,-45 0,-24.852 20.148,-45 45,-45 24.851,0 45,20.148 45,45" /></g></g></g></g></svg>